# xmcd CD database file
#
# Track frame offsets:
#	150
#	42866
#	72266
#	103033
#	138377
#	170543
#	197808
#	230156
#	274887
#	296008
#	325363
#
# Disc length: 4720 seconds
#
# Revision: 0
# Processed by: cddbd v1.5.2PL0 Copyright (c) Steve Scherf et al.
# Submitted via: CDex 1.82
#
DISCID=ae126e0b
DTITLE=Zaperoko - La Resistencia Salsera Del Callao CD 2
DYEAR=2017
DGENRE=Salsa
TTITLE0=Mi Gente
TTITLE1=Serrana
TTITLE2=Sonido Bestial
TTITLE3=Bomba Carambomba
TTITLE4=El Swing
TTITLE5=Fuego En El 23
TTITLE6=Un Verano En Nueva York
TTITLE7=Anamile
TTITLE8=Guaguanco En Jazz
TTITLE9=Yo Quisiera
TTITLE10=Maria Luisa
EXTD=YEAR: 2017
EXTT0=
EXTT1=
EXTT2=
EXTT3=
EXTT4=
EXTT5=
EXTT6=
EXTT7=
EXTT8=
EXTT9=
EXTT10=
PLAYORDER=
